<svg id="SvgjsSvg1001" width="288" height="288" xmlns="http://www.w3.org/2000/svg" version="1.1" xmlns:xlink="http://www.w3.org/1999/xlink" xmlns:svgjs="http://svgjs.com/svgjs"><defs id="SvgjsDefs1002"></defs><g id="SvgjsG1008"><svg xmlns="http://www.w3.org/2000/svg" width="288" height="288" fill="none" viewBox="0 0 1171 960"><path fill="#ffc999" fill-rule="evenodd" d="M175.229 1804.39C155.396 1801.94 141.041 1788.75 142.705 1768.84L178.322 1338.53C180.886 1307.85 208.461 1285.47 239.018 1289.25 269.579 1293.03 290.859 1321.46 285.865 1351.84L212.052 1777.98C208.811 1797.69 195.062 1806.85 175.229 1804.39zM418.166 1798.3C438.146 1798.77 454.931 1783.39 456.195 1763.45L483.223 1336.99C485.173 1306.27 461.167 1280.1 430.386 1279.37 399.597 1278.64 374.389 1303.66 374.891 1334.44L381.822 1761.7C382.145 1781.68 398.185 1797.83 418.166 1798.3z" clip-rule="evenodd" class="colorFFC999 svgShape"></path><path fill="#ffc999" fill-rule="evenodd" d="M439.762 881.038C476.034 881.889 504.492 912.426 502.775 948.659L484.328 1338.19C482.907 1368.19 457.793 1391.57 427.756 1390.87 397.72 1390.16 373.736 1365.62 373.732 1335.59L373.633 945.621C373.624 909.348 403.49 880.186 439.762 881.038zM287.987 893.819C251.98 889.364 219.361 915.416 215.761 951.51L177.055 1339.55C174.074 1369.43 195.498 1396.24 225.315 1399.93 255.131 1403.62 282.446 1382.84 286.849 1353.14L343.962 967.374C349.275 931.491 323.995 898.278 287.987 893.819z" clip-rule="evenodd" class="colorFFC999 svgShape"></path><path fill="#253368" fill-rule="evenodd" d="M539.537 277.772C539.537 277.772 586.398 263.14 607.191 311.809C656.383 321.274 651.819 373.999 651.819 373.999C651.819 373.999 681.542 410.089 638.424 437.906C641.244 479.306 593.67 479.306 593.67 479.306C593.67 479.306 587.586 512.613 550.256 505.268C516.952 540.923 444.327 546.453 413.089 514.37C368.649 560.099 273.479 528.177 278.993 492.038C219.485 497.896 180.909 439.972 206.951 381.367C173.705 343.623 199.975 314.005 199.975 314.005C199.975 314.005 176.193 218.898 240.905 195.231C266.916 137.809 347.807 167.674 347.807 167.674C347.807 167.674 395.341 149.609 419.796 189.45C476.089 189.109 478.344 219.714 486.624 244.384C536.238 239.307 539.537 277.772 539.537 277.772Z" clip-rule="evenodd" class="color253368 svgShape"></path><path fill="#ffc999" fill-rule="evenodd" d="M379.556 255.059C342.119 267.98 325.747 240.71 325.747 240.71 325.747 240.71 303.282 202.213 303.246 228.063 303.224 241.799 279.67 227.341 272.435 243.139 267.566 253.769 285.565 263.583 268.848 292.529 259.16 309.295 308.63 313.525 283.656 345.568 283.656 345.568 309.872 375.617 275.765 392.239L278.231 431.99C279.666 455.124 300.749 471.974 323.644 468.277 345.467 464.755 360.069 443.902 355.917 422.194L346.826 374.698C402.487 365.798 392.965 288.886 379.556 255.059zM700.896 435.089L729.139 335.312C729.139 335.312 775.395 254.353 792.098 259.332 807.614 266.122 772.543 289.296 765.59 312.169 780.357 311.112 773.651 333.071 773.651 333.071 773.651 333.071 785.405 332.645 782.245 350.536 793.161 356.994 784.41 377.528 784.41 377.528 784.41 377.528 762.479 431.616 738.181 467.692 738.181 467.692 697.87 498.812 700.896 435.089z" clip-rule="evenodd" class="colorFFC999 svgShape"></path><path fill="#ffc999" fill-rule="evenodd" d="M707.171 401.377C707.171 401.377 711.385 367.156 714.537 349.727C717.688 332.294 710.323 300.811 723.041 309.151C731.59 314.762 730.102 333.49 729.793 347.302C729.488 361.11 751.8 393.843 735.172 416.502C723.938 431.815 706.225 433.823 707.171 401.377Z" clip-rule="evenodd" class="colorFFC999 svgShape"></path><path fill="#ffc999" fill-rule="evenodd" d="M733.102 428.297C721.522 420.602 705.935 423.376 697.722 434.593L539.157 651.105C525.242 671.482 530.671 699.299 551.23 712.955C571.968 726.726 599.983 720.717 613.239 699.649L741.588 462.316C747.985 450.489 744.305 435.741 733.102 428.297Z" clip-rule="evenodd" class="colorFFC999 svgShape"></path><path fill="#f5222d" d="M315.057 307.124C315.867 306.005 317.431 305.755 318.55 306.565L318.866 306.778C319.076 306.914 319.363 307.092 319.722 307.301C320.754 307.902 321.955 308.507 323.309 309.073C329.585 311.701 336.614 312.569 344.013 310.639C345.35 310.29 346.717 311.091 347.065 312.427C347.414 313.763 346.613 315.129 345.276 315.478C336.715 317.711 328.595 316.708 321.376 313.686C318.686 312.56 316.726 311.419 315.616 310.616C314.497 309.806 314.247 308.243 315.057 307.124Z" class="colorF5222D svgShape"></path><path fill="#253368" d="M313.361 267.541C314.674 267.332 315.909 268.226 316.118 269.539 317.576 278.669 311.898 287.246 303.307 288.625 294.72 289.994 286.645 283.612 285.187 274.483 284.978 273.171 285.872 271.937 287.185 271.727 288.498 271.518 289.732 272.412 289.942 273.724 290.994 280.313 296.68 284.807 302.546 283.872 308.418 282.93 312.416 276.89 311.364 270.297 311.154 268.985 312.048 267.751 313.361 267.541zM373.598 259.582C374.844 259.383 376.015 260.23 376.215 261.476 377.661 270.497 372.676 278.956 364.821 280.212 356.966 281.467 349.592 274.988 348.146 265.967 347.946 264.722 348.794 263.551 350.04 263.351 351.286 263.152 352.457 263.999 352.657 265.245 353.73 271.945 358.945 276.526 364.099 275.702 369.254 274.878 372.778 268.898 371.704 262.198 371.505 260.953 372.353 259.782 373.598 259.582zM288.272 243.305C296.175 240.244 304.516 240.093 312.271 241.656L313.518 241.925C314.676 242.191 315.56 242.444 316.127 242.636 317.386 243.063 318.061 244.429 317.634 245.688 317.207 246.947 315.84 247.621 314.581 247.194L314.051 247.029C313.421 246.845 312.495 246.611 311.319 246.375 304.388 244.977 296.933 245.112 290.011 247.793 286.786 249.042 283.802 250.817 281.099 253.174 280.097 254.047 278.576 253.943 277.702 252.941 276.829 251.939 276.933 250.419 277.935 249.546 281.068 246.815 284.535 244.753 288.272 243.305z" class="color253368 svgShape"></path><path fill="#ffc999" fill-rule="evenodd" d="M603.304 709.182C623.756 694.931 628.772 666.805 614.512 646.36L475.583 447.16C461.323 426.72 433.192 421.701 412.74 435.952C392.293 450.203 387.276 478.329 401.532 498.774L540.466 697.974C554.722 718.418 582.853 723.433 603.304 709.182Z" clip-rule="evenodd" class="colorFFC999 svgShape"></path><path fill="#4e5c93" d="M399.647 498.35C400.221 497.95 400.987 498.031 401.466 498.507L401.632 498.704L459.7 581.962L532.023 530.388C532.592 529.982 533.359 530.055 533.844 530.526L534.011 530.721C534.418 531.29 534.345 532.057 533.874 532.541L533.678 532.709L460.184 585.12C459.61 585.53 458.837 585.452 458.353 584.973L458.186 584.775L399.293 500.334C398.843 499.688 399.001 498.8 399.647 498.35Z" class="color4E5C93 svgShape"></path><path fill="#52cc99" fill-rule="evenodd" d="M460.428 583.218L401.53 498.773C387.333 478.417 392.376 450.148 412.742 435.955C433.104 421.762 461.383 426.804 475.581 447.163L533.918 530.802L460.428 583.218Z" clip-rule="evenodd" class="color597EF7 svgShape"></path><path fill="#52cc99" fill-rule="evenodd" d="M440.621 509.116C450.264 530.121 468.128 566.278 470.347 590.164C473.952 628.893 448.73 657.71 448.73 657.71C448.73 657.71 448.475 646.322 446.027 746.659C330.491 766.92 256.826 745.377 256.826 745.377L259.076 718.779L240.315 655.908C240.315 655.908 228.914 632.492 205.491 580.26C189.208 543.946 190.338 498.929 192.544 474.859C193.489 464.547 188.59 443.017 198.824 441.409C233.599 435.941 257.731 432.997 257.731 432.997L261.963 419.996C262.528 416.061 265.899 413.139 269.876 413.139H359.285C362.934 413.139 366.117 415.608 367.023 419.144L373.29 432.997L420.411 434.677C428.664 436.295 435.801 462.145 436.662 470.507L440.621 509.116Z" clip-rule="evenodd" class="color597EF7 svgShape"></path><path fill="#ccd7ee" d="M256.598 436.548C257.326 435.971 258.351 436.023 259.017 436.629L259.224 436.851L339.949 538.602L371.279 443.688C371.57 442.806 372.455 442.286 373.344 442.427L373.64 442.498C374.522 442.789 375.042 443.674 374.901 444.563L374.829 444.859L342.417 543.067C341.982 544.385 340.342 544.759 339.374 543.856L339.177 543.643L256.295 439.174C255.653 438.365 255.789 437.19 256.598 436.548Z" class="colorCCD7EE svgShape"></path><path fill="#ccd7ee" fill-rule="evenodd" d="M363.78 550.382C372.262 564.678 368.438 582.608 355.244 590.433C342.051 598.253 324.478 593.001 316 578.705C307.518 564.404 311.338 546.474 324.536 538.653C337.729 530.833 355.298 536.085 363.78 550.382Z" clip-rule="evenodd" class="colorCCD7EE svgShape"></path><path fill="#e4ebf7" fill-rule="evenodd" d="M366.828 550.31C375.309 564.607 371.485 582.537 358.292 590.357C345.098 598.182 327.525 592.93 319.043 578.629C310.566 564.333 314.385 546.402 327.583 538.582C340.772 530.762 358.346 536.014 366.828 550.31Z" clip-rule="evenodd" class="colorE4EBF7 svgShape"></path><path fill="#faad14" fill-rule="evenodd" d="M361.443 552.801C368.028 563.902 365.061 577.821 354.812 583.894C344.569 589.966 330.927 585.893 324.346 574.792C317.76 563.691 320.723 549.772 330.972 543.699C341.215 537.622 354.857 541.7 361.443 552.801Z" clip-rule="evenodd" class="colorFAAD14 svgShape"></path><path fill="#4e5c93" d="M192.584 473.431C193.371 473.455 193.991 474.111 193.969 474.898L193.844 480.565L193.825 481.647C193.632 492.937 193.612 504.866 193.876 516.03L193.961 519.244C194.316 531.359 195.011 541.096 196.102 547.645C197.341 555.071 202.099 567.688 209.473 583.946C210.761 586.787 212.118 589.713 213.535 592.711C217.44 600.971 221.625 609.408 225.809 617.569L227.924 621.668L231.324 628.156L231.481 628.48L261.782 718.791L261.849 719.384L259.27 745.594L261.512 746.034C262.152 746.155 262.832 746.281 263.55 746.411L264.658 746.609C270.079 747.567 276.361 748.526 283.429 749.421C331.685 755.531 386.304 755.561 442.571 745.525L444.864 745.108L445.057 737.816C445.2 733.041 445.416 726.481 445.695 718.393L446.803 687.126L447.767 660.815L447.945 660.178L448.635 658.895L449.739 656.778C450.051 656.17 450.375 655.531 450.71 654.863L451.22 653.84C453.685 648.86 456.15 643.458 458.45 637.83C461.721 629.828 464.379 622.039 466.21 614.723C467.979 607.651 468.922 601.216 468.922 595.572C468.922 581.446 467.048 570.605 462.843 559.422C460.738 553.823 458.034 548.042 454.139 540.664L452.201 537.054C449.583 532.254 444.527 523.137 441.6 517.867L439.371 513.853L439.196 513.22L438.295 489.356C438.265 488.569 438.879 487.907 439.666 487.878C440.365 487.851 440.966 488.333 441.111 488.993L441.144 489.248L442.03 512.77L453.711 533.874L455.86 537.824L457.438 540.814C460.973 547.597 463.502 553.075 465.512 558.419C469.84 569.931 471.773 581.111 471.773 595.572C471.773 601.474 470.798 608.132 468.976 615.415C467.109 622.875 464.408 630.789 461.089 638.908C459.094 643.79 456.978 648.5 454.843 652.919L453.775 655.104C453.251 656.162 452.75 657.156 452.275 658.081L450.602 661.258L448.271 726.548C447.928 736.816 447.728 743.562 447.706 745.908L447.704 746.3C447.704 746.986 447.214 747.576 446.538 747.701C388.737 758.421 332.583 758.517 283.071 752.248C276.667 751.438 270.901 750.574 265.827 749.706L264.162 749.416C263.012 749.213 261.951 749.018 260.979 748.834L257.42 748.122C256.803 747.986 256.36 747.465 256.306 746.856L256.308 746.59L258.98 719.404L228.872 629.605L227.33 626.691C226.106 624.361 224.741 621.735 223.272 618.869C219.074 610.683 214.876 602.219 210.957 593.929L208.868 589.468C208.528 588.734 208.192 588.004 207.86 587.28L206.876 585.123C199.4 568.64 194.583 555.867 193.289 548.114C192.075 540.828 191.35 529.834 191.025 516.098C190.798 506.49 190.781 496.327 190.902 486.487L191.013 479.472L191.118 474.818C191.141 474.031 191.797 473.411 192.584 473.431Z" class="color4E5C93 svgShape"></path><path fill="#ffc999" fill-rule="evenodd" d="M107.501 742.781L106.215 742.283C83.3334 733.401 71.9869 707.659 80.8678 684.785L165.601 466.606C174.487 443.732 200.242 432.39 223.123 441.272L224.41 441.769C247.291 450.652 258.638 476.394 249.752 499.272L165.023 717.442C156.138 740.32 130.383 751.663 107.501 742.781Z" clip-rule="evenodd" class="colorFFC999 svgShape"></path><path fill="#4e5c93" fill-rule="evenodd" d="M258.635 766.65C218.041 769.828 98.3356 1023.1 61.938 1114.8C66.7841 1133.27 119.747 1169.01 119.747 1169.01C119.747 1169.01 116.582 1183.71 114.627 1192.54C149.267 1221.02 216.262 1236.49 216.262 1236.49L216.409 1249.13C323.522 1298.43 466.957 1251.18 466.957 1251.18C466.957 1251.18 469.633 1248.44 467.714 1238.53C516.346 1237.97 620.482 1176.29 620.482 1176.29L605.679 1145.77L648.51 1101.95C648.51 1101.95 532.848 889.247 497.248 829.75C465.993 777.522 436.678 762.482 436.678 762.482C436.678 762.482 330.659 761.012 258.635 766.65Z" clip-rule="evenodd" class="color4E5C93 svgShape"></path><path fill="#4e5c93" fill-rule="evenodd" d="M444.433 766.646L441.376 743.449C441.376 743.449 349.761 743.996 259.908 739.497C257.639 749.795 255.03 768.326 255.03 768.326C262.584 762.124 344.202 780.238 444.433 766.646Z" clip-rule="evenodd" class="color4E5C93 svgShape"></path><path fill="#253368" d="M441.092 811.882C441.898 811.488 442.854 811.749 443.356 812.457L443.506 812.71 620.276 1173.71C620.651 1174.48 620.439 1175.4 619.767 1175.92L618.658 1176.77 616.849 1178.09C616.407 1178.41 615.938 1178.75 615.443 1179.1 611.912 1181.61 607.758 1184.39 603.007 1187.4 589.443 1195.96 573.802 1204.53 556.288 1212.52 529.063 1224.95 499.85 1234.82 468.992 1241.19 468.016 1241.4 467.061 1240.77 466.86 1239.79 466.658 1238.82 467.286 1237.86 468.262 1237.66 498.842 1231.35 527.801 1221.56 554.789 1209.24 572.149 1201.32 587.648 1192.83 601.079 1184.35 605.253 1181.71 608.957 1179.24 612.171 1176.99L614.063 1175.65 616.379 1173.96 440.265 814.296C439.871 813.49 440.131 812.535 440.84 812.032L441.092 811.882zM227.199 886.854C227.552 885.922 228.593 885.452 229.525 885.804 230.364 886.121 230.829 886.996 230.656 887.847L230.575 888.129 115.051 1193.63 116.947 1194.81 119.245 1196.19C121.244 1197.38 123.452 1198.65 125.858 1199.99 135.489 1205.36 146.282 1210.74 157.977 1215.75 177.038 1223.92 196.598 1230.32 216.163 1234.28 217.14 1234.48 217.772 1235.43 217.574 1236.4 217.377 1237.38 216.425 1238.01 215.448 1237.82 195.621 1233.81 175.83 1227.33 156.555 1219.07 144.739 1214 133.836 1208.57 124.1 1203.14 121.177 1201.51 118.539 1199.98 116.207 1198.58L113.786 1197.1 111.854 1195.88C111.226 1195.46 110.927 1194.71 111.078 1194L111.156 1193.73 227.199 886.854z" class="color253368 svgShape"></path><path fill="#253368" d="M304.63 773.47L304.922 773.51C305.801 773.685 306.403 774.473 306.372 775.34L306.322 775.708L299.41 810.59C297.03 822.664 294.492 835.593 291.824 849.252L290.356 856.773C279.226 913.845 268.096 971.96 257.606 1028.16L255.197 1041.09C253.916 1047.99 252.651 1054.82 251.403 1061.58L244.726 1098.03C234.884 1152.16 226.535 1200.04 219.992 1240.21L218.453 1249.71L220.92 1250.53C223.532 1251.38 226.161 1252.19 228.805 1252.98L232.783 1254.13C297.025 1272.32 365.681 1271.29 430.52 1258.62C440.809 1256.6 450.089 1254.45 458.206 1252.3L460.552 1251.67C461.681 1251.36 462.746 1251.06 463.744 1250.78L466.672 1249.91L386.232 846.87C386.057 845.99 386.553 845.133 387.366 844.828L387.649 844.748C388.528 844.572 389.386 845.068 389.691 845.882L389.771 846.164L470.533 1250.81C470.712 1251.7 470.19 1252.59 469.318 1252.88L466.673 1253.68L464.739 1254.24C463.39 1254.63 461.922 1255.04 460.34 1255.46L459.131 1255.79C450.94 1257.96 441.582 1260.13 431.213 1262.16C365.865 1274.93 296.667 1275.96 231.8 1257.6C226.421 1256.08 221.104 1254.43 215.851 1252.64C215.018 1252.36 214.511 1251.52 214.65 1250.65L216.89 1236.82C223.366 1197.2 231.558 1150.28 241.175 1097.39L245.382 1074.35C247.423 1063.24 249.513 1051.93 251.649 1040.43C262.039 984.537 273.118 926.497 284.246 869.273L293.887 819.961L302.799 774.925C302.974 774.046 303.762 773.445 304.63 773.47Z" class="color253368 svgShape"></path><path fill="#253368" d="M347.92 780.422C348.816 780.375 349.596 780.986 349.784 781.834L349.824 782.125 368.805 1118.66C368.861 1119.65 368.1 1120.5 367.105 1120.56 366.209 1120.61 365.43 1120 365.242 1119.15L365.202 1118.86 346.221 782.328C346.164 781.333 346.926 780.481 347.92 780.422zM396.156 771.816C397.013 771.55 397.917 771.954 398.305 772.731L398.415 773.004 469.681 1002.37C469.977 1003.32 469.445 1004.33 468.493 1004.63 467.637 1004.89 466.732 1004.49 466.344 1003.71L466.235 1003.44 394.968 774.074C394.673 773.122 395.204 772.112 396.156 771.816z" class="color253368 svgShape"></path><path fill="#253368" d="M264.676 766.523C305.114 768.413 344.368 769.264 379.314 769.261L391.237 769.225C403.552 769.152 414.43 768.965 422.734 768.708L426.685 768.571C427.89 768.525 428.979 768.478 429.937 768.431L431.868 768.326C432.513 768.287 433.043 768.248 433.448 768.212L433.932 768.161L434.14 768.08C434.405 767.998 434.691 767.976 434.976 768.025L435.261 768.098L435.491 768.126C435.926 768.204 435.975 768.486 436.346 770.6L435.606 771.373C435.381 771.587 435.316 771.591 435.153 771.603C435.013 771.644 434.865 771.675 434.685 771.702L434.391 771.742C434.141 771.772 433.823 771.802 433.439 771.833L432.089 771.927C430.356 772.033 427.915 772.142 424.922 772.246L418.71 772.431C410.55 772.641 400.476 772.788 389.299 772.844L387.315 772.852C350.355 772.997 308.119 772.165 264.507 770.126C263.512 770.08 262.743 769.235 262.789 768.24C262.836 767.245 263.68 766.476 264.676 766.523Z" class="color253368 svgShape"></path><path fill="#52cc99" fill-rule="evenodd" d="M215.919 586.389L253.191 490.421C262.175 467.287 250.591 441.012 227.45 432.031C204.308 423.05 178.024 434.626 169.036 457.76L132.123 552.818L215.919 586.389Z" clip-rule="evenodd" class="color597EF7 svgShape"></path><path fill="#4e5c93" d="M358.94 442.747C359.727 442.747 360.365 443.385 360.365 444.172 360.365 444.872 359.861 445.454 359.196 445.574L358.94 445.597H282.468C281.681 445.597 281.043 444.959 281.043 444.172 281.043 443.473 281.547 442.891 282.212 442.77L282.468 442.747H358.94zM253.075 490.379C253.36 489.646 254.186 489.282 254.92 489.567 255.573 489.82 255.933 490.501 255.804 491.164L255.733 491.411 218.461 587.374C218.206 588.031 217.517 588.391 216.85 588.256L216.602 588.181 132.805 554.61C132.074 554.317 131.719 553.488 132.012 552.757 132.273 552.108 132.957 551.755 133.62 551.89L133.866 551.964 216.325 584.998 253.075 490.379z" class="color4E5C93 svgShape"></path><path fill="#4e5c93" fill-rule="evenodd" d="M342.287 749.61L416.217 548.071C417.436 544.75 420.646 542.577 424.183 542.68L607.471 547.91C613.165 548.071 616.975 553.825 614.909 559.131L538.334 755.118C537.106 758.273 534.066 760.348 530.682 760.352L350.029 760.671C344.3 760.679 340.315 754.983 342.287 749.61Z" clip-rule="evenodd" class="color4E5C93 svgShape"></path><path fill="#253368" fill-rule="evenodd" d="M352.047 747.525L424.69 549.499C426.165 545.475 430.047 542.849 434.333 542.97L619.89 548.267C623.871 548.379 626.538 552.399 625.085 556.11L547.457 754.812C546.095 758.303 542.732 760.602 538.985 760.611L361.421 760.92C354.486 760.933 349.658 754.036 352.047 747.525Z" clip-rule="evenodd" class="color253368 svgShape"></path><path fill="#4e5c93" fill-rule="evenodd" d="M449.277 562.974C451.254 565.367 450.34 569.387 447.229 571.951C444.122 574.519 440.002 574.657 438.025 572.264C436.048 569.871 436.963 565.851 440.069 563.288C443.18 560.72 447.3 560.581 449.277 562.974Z" clip-rule="evenodd" class="color4E5C93 svgShape"></path><path fill="#ffc999" fill-rule="evenodd" d="M446.717 565.281C447.743 566.522 447.268 568.611 445.654 569.942 444.04 571.273 441.897 571.349 440.875 570.108 439.849 568.862 440.324 566.773 441.938 565.442 443.547 564.111 445.69 564.04 446.717 565.281zM412.166 746.59C410.198 760.349 397.748 770.127 383.909 768.787L116.739 742.897C92.266 739.707 75.1185 717.138 78.6153 692.718 82.1389 668.074 105.28 651.183 129.829 655.319L392.422 717.608C405.513 720.714 414.071 733.28 412.166 746.59z" clip-rule="evenodd" class="colorFFC999 svgShape"></path><path fill="#ffc999" fill-rule="evenodd" d="M412.21 779.042C412.21 779.042 350.904 772.83 343.019 745.542C335.877 720.831 359.678 710.739 359.678 710.739C359.678 710.739 381.748 696.963 410.278 692.208C429.075 689.08 465.428 686.749 468.404 696.398C472.291 708.978 430.994 709.22 430.917 718.801C430.841 728.629 439.377 729.212 458.349 736.92C470.211 741.737 477.604 738.748 486.879 744.749C505.008 756.477 483.683 791.353 412.21 779.042Z" clip-rule="evenodd" class="colorFFC999 svgShape"></path><path fill="#dd936f" d="M339.29 263.885C340.166 263.808 340.948 264.382 341.159 265.207L341.284 265.991C341.328 266.223 341.393 266.52 341.484 266.878 341.799 268.13 342.302 269.584 343.033 271.221 345.156 275.976 348.704 281.194 354.023 286.7 354.725 287.427 354.676 288.593 353.915 289.258L351.614 291.254C348.258 294.137 345.331 296.529 342.828 298.467L341.058 299.813 339.23 301.134C339.185 301.165 339.145 301.192 339.112 301.214 338.301 301.758 337.202 301.541 336.658 300.73 336.114 299.919 336.331 298.821 337.142 298.277L337.991 297.679 338.948 296.975C339.292 296.719 339.66 296.441 340.054 296.14L340.662 295.671C342.846 293.98 345.366 291.932 348.225 289.499L350.203 287.8 349.462 286.993C345.276 282.332 342.265 277.844 340.25 273.63L339.803 272.663C338.396 269.513 337.803 267.163 337.683 265.801 337.598 264.828 338.317 263.971 339.29 263.885zM309.675 370.931C310 370.01 311.011 369.528 311.932 369.853 323.667 374.001 335.341 375.162 346.61 373.517 347.577 373.376 348.475 374.045 348.616 375.011 348.757 375.977 348.088 376.875 347.121 377.016 335.282 378.744 323.028 377.525 310.753 373.187 309.832 372.861 309.349 371.851 309.675 370.931zM766.807 310.887C767.515 311.56 767.543 312.679 766.87 313.387L766.051 314.27 765.004 315.43C764.638 315.841 764.255 316.276 763.858 316.733 761.586 319.347 759.315 322.14 757.199 324.996 755.102 327.825 753.273 330.562 751.789 333.145 746.729 341.949 746.31 347.574 751.121 349.58 752.022 349.956 752.448 350.991 752.073 351.892 751.697 352.793 750.661 353.219 749.76 352.843 742.144 349.668 742.73 341.811 748.722 331.384 750.281 328.671 752.184 325.823 754.357 322.891 756.532 319.955 758.86 317.092 761.187 314.414L762.915 312.462 764.307 310.95C764.98 310.243 766.099 310.214 766.807 310.887z" class="colorDD936F svgShape"></path><path fill="#dd936f" d="M773.655 332.658C774.249 333.433 774.103 334.542 773.328 335.136L772.466 335.815L771.364 336.707C770.978 337.024 770.575 337.359 770.156 337.712C767.765 339.727 765.374 341.886 763.147 344.101C760.777 346.458 758.736 348.738 757.127 350.879C752.837 356.585 752.167 360.346 755.235 362.226C756.513 363.009 757.952 363.183 759.61 362.797C762.035 362.232 764.774 360.506 767.576 357.973C768.846 356.824 770.043 355.588 771.127 354.353L771.953 353.384C772.179 353.111 772.353 352.891 772.472 352.735C773.064 351.958 774.174 351.808 774.951 352.4C775.728 352.991 775.878 354.101 775.286 354.878L774.693 355.619C774.442 355.924 774.138 356.282 773.787 356.683C772.619 358.015 771.329 359.347 769.948 360.595C766.741 363.495 763.54 365.512 760.412 366.24C757.893 366.827 755.505 366.539 753.386 365.24C747.861 361.854 748.92 355.91 754.299 348.754C756.022 346.464 758.171 344.062 760.653 341.594C762.955 339.305 765.416 337.081 767.877 335.008L769.121 333.974L771.176 332.33C771.951 331.736 773.061 331.883 773.655 332.658Z" class="colorDD936F svgShape"></path><path fill="#dd936f" d="M778.032 350.093C778.997 349.94 779.903 350.599 780.055 351.563C780.207 352.528 779.549 353.433 778.584 353.585C776.218 353.959 773.195 356.095 769.578 360.351C761.978 369.289 760.404 375.04 762.664 376.361C765.003 377.729 770.553 375.201 774.12 370.101C775.379 368.301 778.14 369.954 777.147 371.913C772.705 380.674 767.499 386.783 761.025 391.533L759.411 392.677C756.7 394.558 755.707 395.094 748.225 399.04L746.476 399.984C736.322 405.601 732.224 410.536 729.877 422.224C729.685 423.181 728.753 423.802 727.795 423.61C726.837 423.417 726.217 422.486 726.409 421.528C729.058 408.334 734.021 402.683 745.665 396.398L752.497 392.764C755.101 391.346 756.014 390.739 758.017 389.338C761.893 386.627 765.286 383.444 768.329 379.457L768.448 379.292L768.013 379.471C765.558 380.403 763.174 380.527 761.301 379.637L760.878 379.413C755.836 376.465 758.021 368.483 766.882 358.062C770.995 353.222 774.673 350.623 778.032 350.093Z" class="colorDD936F svgShape"></path><path fill="#dd936f" d="M730.031 328.276C730.907 328.203 731.687 328.782 731.893 329.608L731.94 329.892 734.084 355.782 734.748 356.956 735.239 357.87C736.254 359.793 737.268 361.933 738.214 364.239 740.962 370.938 742.603 377.657 742.568 383.995 742.541 388.942 741.477 393.454 739.222 397.402 738.738 398.25 737.658 398.545 736.81 398.061 735.961 397.577 735.666 396.497 736.15 395.649 738.083 392.265 739.007 388.346 739.031 383.976 739.063 378.173 737.527 371.884 734.942 365.581 734.221 363.824 733.459 362.169 732.689 360.641L732.111 359.521C731.537 358.432 731.094 357.663 730.85 357.267 730.753 357.109 730.681 356.938 730.638 356.759L730.593 356.486 728.415 330.183C728.334 329.21 729.058 328.356 730.031 328.276zM432.95 743.884C433.533 743.101 434.641 742.939 435.424 743.522L435.88 743.845C436.43 744.221 437.265 744.751 438.375 745.395 440.873 746.842 443.822 748.293 447.203 749.65 458.883 754.336 472.566 756.733 488.021 755.599 488.995 755.528 489.843 756.259 489.914 757.233 489.986 758.207 489.254 759.054 488.28 759.126 472.262 760.301 458.045 757.81 445.885 752.931 442.343 751.509 439.242 749.984 436.602 748.454 435.904 748.05 435.275 747.666 434.716 747.308L434.179 746.959C433.76 746.68 433.47 746.476 433.311 746.358 432.528 745.774 432.366 744.667 432.95 743.884zM423.884 759.278C424.298 758.394 425.351 758.013 426.235 758.427 427.117 758.839 428.008 759.235 428.91 759.616 442.486 765.343 456.677 767.09 468.628 766.592L469.997 766.525C470.786 766.48 471.329 766.436 471.599 766.408 472.57 766.307 473.44 767.012 473.541 767.983 473.642 768.954 472.936 769.824 471.965 769.925L470.96 770.008C470.734 770.023 470.479 770.039 470.197 770.055 457.478 770.777 442.211 769.065 427.534 762.873 426.591 762.475 425.658 762.061 424.736 761.629 423.851 761.215 423.47 760.163 423.884 759.278zM408.678 768.051C409.182 767.214 410.268 766.944 411.105 767.448L411.506 767.674C411.999 767.939 412.769 768.317 413.821 768.778 416.204 769.822 419.118 770.871 422.579 771.853 430.209 774.018 439.334 775.538 450.013 776.12 450.989 776.173 451.736 777.007 451.683 777.982 451.63 778.957 450.796 779.704 449.821 779.651 438.88 779.054 429.496 777.491 421.614 775.254 417.997 774.228 414.931 773.125 412.401 772.017 410.858 771.34 409.822 770.803 409.281 770.477 408.444 769.974 408.174 768.887 408.678 768.051z" class="colorDD936F svgShape"></path></svg></g></svg>