<svg width="30" height="30" xmlns="http://www.w3.org/2000/svg" xmlns:undefined="http://www.inkscape.org/namespaces/inkscape" xmlns:undefined="http://sodipodi.sourceforge.net/DTD/sodipodi-0.dtd" version="1.1">

 <metadata id="metadata5">image/svg+xml</metadata>
 <g>
  <title>Layer 1</title>
  <g stroke="null" id="layer1"  >
   <g stroke="null" id="g5388">
    <g stroke="null" id="g5374">
     <path stroke="null" stroke-width="0.26458" fill="#6de2d2" d="m1.07863,21.2456l0.38344,0.98547l-0.38602,0.99322l1.13533,0l0.38602,-0.99322l-0.38344,-0.98547l-1.13533,0z" id="path5370"  />
     <path stroke="null" stroke-width="0.26458" fill="#ffb82e"   id="path5372" d="m7.43948,6.74158c-2.17037,0 -5.53118,0.96073 -5.53247,4.15633c-0.00131,3.21004 1.58277,4.64468 5.30251,4.64468c1.94544,0 3.67489,1.34147 3.96875,2.96675c0.18376,1.01628 -0.7116,2.46921 -1.67535,2.60656c-1.11609,0.15904 -2.7493,0.1297 -3.97805,0.1297l-2.85874,0l0.38344,0.98547l-0.38602,0.99322l2.86132,0c1.36938,0 3.75486,0.26104 5.26428,-0.66042c1.39708,-0.85289 2.77037,-2.29723 2.77037,-4.05453c0,-2.90883 -2.5081,-4.48912 -6.35,-5.03794c-2.31836,-0.33118 -3.27998,-1.21525 -3.175,-2.57349c0.11096,-1.43542 1.28985,-2.17144 3.73311,-2.17144l8.12973,0l0,-0.00053l0.38603,-0.9927l-0.38551,-0.99167l-1.13585,0l0.38603,0.99167l-0.38654,0.9927l-0.45166,0l0.38603,-0.9927l-0.38551,-0.99167l-6.8709,0.00001zm8.91005,0l0.38603,0.99167l-0.38654,0.9927l1.13584,0.00053l0,-0.00053l0.38603,-0.9927l-0.38551,-0.99167l-1.13585,0zm1.5875,0l0.38603,0.99167l-0.38654,0.9927l1.13584,0.00053l0,-0.00053l0.38603,-0.9927l-0.38551,-0.99167l-1.13585,0zm1.5875,0l0.38603,0.99167l-0.38654,0.9927l1.13584,0.00053l0,-0.00053l0.38603,-0.9927l-0.38551,-0.99167l-1.13585,0zm1.5875,0l0.38603,0.99167l-0.38654,0.9927l1.13584,0.00053l0,-0.00053l0.38603,-0.9927l-0.38551,-0.99167l-1.13585,0zm1.5875,0l0.38603,0.99167l-0.38654,0.9927l1.13584,0.00053l0,-0.00053l0.38603,-0.9927l-0.38551,-0.99167l-1.13585,0zm1.5875,0l0.38603,0.99167l-0.38654,0.9927l1.13584,0.00053l0,-0.00053l0.38603,-0.9927l-0.38551,-0.99167l-1.13585,0zm1.5875,0l0.38603,0.99167l-0.38654,0.9927l1.13584,0.00053l0,-0.00053l0.38603,-0.9927l-0.38551,-0.99167l-1.13585,0z"/>
    </g>
    <g stroke="null" id="g5380">
     <path stroke="null" stroke-width="0.2392" fill="#ffb82e"   id="path5376" d="m27.92506,21.58456l0.32349,0.83199l-0.32711,0.84078l0.0036,0l0,0.0011l0.67231,0l0,-0.0011l0.32659,-0.84078l-0.32297,-0.83199l-0.67591,0z"/>
     <path stroke="null" stroke-width="0.2392" fill="#6de2d2" d="m20.66607,8.96052c-5.07043,0 -7.0947,0.30268 -6.85643,7.08743c0.16845,4.95146 0.09253,7.21041 6.85643,7.21041l1.58129,0l0,-0.0011l0.3266,-0.84078l-0.32298,-0.83199l-1.58491,0c-3.38111,0 -5.12119,-0.43912 -5.13147,-2.15852c-0.01262,-2.11126 0.935,-2.05457 3.70468,-2.09341c1.87744,-0.02633 1.90034,-0.16732 1.88567,-0.89297c-0.01241,-0.61352 -0.01712,-0.76157 -1.88567,-0.78135c-2.72284,-0.02883 -3.72768,-0.05192 -3.70365,-2.57142c0.01505,-1.57904 0.95219,-2.59674 5.13044,-2.59674l1.82727,0c1.54637,0 1.57992,-0.13574 1.60197,-0.79943c0.0218,-0.65607 -0.1172,-0.73019 -1.49655,-0.73019l-1.93269,0.00006zm1.96732,12.62404l0.32349,0.83199l-0.32711,0.84077l0.0036,0l0,0.00111l0.67231,0l0,-0.00111l0.3266,-0.84077l-0.32298,-0.83199l-0.67591,0zm1.05833,0l0.3235,0.83199l-0.32712,0.84077l0.0036,0l0,0.00111l0.67231,0l0,-0.00111l0.3266,-0.84077l-0.32298,-0.83199l-0.67591,0zm1.05833,0l0.3235,0.83199l-0.32711,0.84077l0.0036,0l0,0.00111l0.67231,0l0,-0.00111l0.32659,-0.84077l-0.32297,-0.83199l-0.67592,0zm1.05834,0l0.32349,0.83199l-0.32711,0.84077l0.0036,0l0,0.00111l0.67231,0l0,-0.00111l0.3266,-0.84077l-0.32298,-0.83199l-0.67591,0zm1.05833,0l0.3235,0.83199l-0.32712,0.84077l0.0036,0l0,0.00111l0.67231,0l0,-0.00111l0.3266,-0.84077l-0.32298,-0.83199l-0.67591,0z" id="path5378"  />
    </g>
   </g>
  </g>
 </g>
</svg>